# xmcd CD database file
#
# Track frame offsets:
#	150
#	34433
#	56930
#	80253
#	101191
#	117341
#	132588
#	148255
#	167700
#	180269
#	210880
#	227314
#	245854
#	265139
#	281368
#
# Disc length: 3912 seconds
#
# Revision: 1
# Processed by: cddbd v1.5.1PL2 Copyright (c) Steve Scherf et al.
# Submitted via: CDex 1.51
#
DISCID=da0f460f
DTITLE=Juan Diniz - O Poeta do Rodeio - 15 Anos
DYEAR=1900
DGENRE=Country
TTITLE0=Homenagem Sertaneja
TTITLE1=Meu Reino Encantado
TTITLE2=Desatino
TTITLE3=O Doutor e o Caipira
TTITLE4=Mulher Boa
TTITLE5=Espuma da Cerveja
TTITLE6=Na Sola da Bota
TTITLE7=Nóis Trupica Mais Não Cai
TTITLE8=Homenagem ao Tropeiro João Palestino
TTITLE9=A Diferença Entre Ser Velho Ou Idoso
TTITLE10=A Metade de um Couro de Boi
TTITLE11=Obra do Destino - Uma Lição de Vida
TTITLE12=Perdão de um Filho - Uma Lição de Vida
TTITLE13=Entrevista com o Criador
TTITLE14=O Verdadeiro Sentido do Pai Nosso
EXTD=
EXTT0=
EXTT1=
EXTT2=
EXTT3=
EXTT4=
EXTT5=
EXTT6=
EXTT7=
EXTT8=
EXTT9=
EXTT10=
EXTT11=
EXTT12=
EXTT13=
EXTT14=
PLAYORDER=
